<svg xmlns="http://www.w3.org/2000/svg" xmlns:xlink="http://www.w3.org/1999/xlink"><defs><style>
    .sprite-symbol-usage {display: none;}
    .sprite-symbol-usage:target {display: inline;}
  </style><symbol viewBox="0 0 19 20" id="add">
    <!-- Generator: Sketch 52.2 (67145) - http://www.bohemiancoding.com/sketch -->
    <title>+</title>
    <desc>Created with Sketch.</desc>
    <g id="add_Page-1" stroke="none" stroke-width="1" fill="none" fill-rule="evenodd">
        <polygon id="add_+" fill="#EEE5B5" points="10.777832 11.2880859 10.777832 19.5527344 8.41650391 19.5527344 8.41650391 11.2880859 0.627929688 11.2880859 0.627929688 8.92675781 8.41650391 8.92675781 8.41650391 0.662109375 10.777832 0.662109375 10.777832 8.92675781 18.5664062 8.92675781 18.5664062 11.2880859" />
    </g>
</symbol><symbol viewBox="0 0 27 27" fill="none" id="full-screen">
<path fill-rule="evenodd" clip-rule="evenodd" d="M23.8571 0H16V3.14286H23.8571V11H27V3.14286V0H23.8571Z" fill="#FFF9D9" fill-opacity="0.7" />
<path fill-rule="evenodd" clip-rule="evenodd" d="M27 23.8571V16H23.8571V23.8571H16V27H23.8571H27L27 23.8571Z" fill="#FFF9D9" fill-opacity="0.7" />
<path fill-rule="evenodd" clip-rule="evenodd" d="M0 3.14286L0 11H3.14286L3.14286 3.14286L11 3.14286V0H3.14286H0L0 3.14286Z" fill="#FFF9D9" fill-opacity="0.7" />
<path fill-rule="evenodd" clip-rule="evenodd" d="M3.14286 27H11V23.8571H3.14286L3.14286 16H0L0 23.8571V27H3.14286Z" fill="#FFF9D9" fill-opacity="0.7" />
</symbol><symbol viewBox="0 0 14 21" id="pause">
    <!-- Generator: Sketch 52.2 (67145) - http://www.bohemiancoding.com/sketch -->
    <title>Artboard</title>
    <desc>Created with Sketch.</desc>
    <g id="pause_Artboard" stroke="none" stroke-width="1" fill="none" fill-rule="evenodd">
        <polygon id="pause_Line" fill="#EEE5B5" fill-rule="nonzero" points="0 -1.11910481e-13 4 -1.11910481e-13 4 21 0 21" />
        <polygon id="pause_Line" fill="#EEE5B5" fill-rule="nonzero" points="10 -1.11910481e-13 14 -1.11910481e-13 14 21 10 21" />
    </g>
</symbol></defs><use id="add-usage" xlink:href="#add" class="sprite-symbol-usage" /><use id="full-screen-usage" xlink:href="#full-screen" class="sprite-symbol-usage" /><use id="pause-usage" xlink:href="#pause" class="sprite-symbol-usage" /></svg>